<?xml version="1.0" standalone="no"?>
<!DOCTYPE svg PUBLIC "-//W3C//DTD SVG 20010904//EN"
 "http://www.w3.org/TR/2001/REC-SVG-20010904/DTD/svg10.dtd">
<svg version="1.0" xmlns="http://www.w3.org/2000/svg"
 width="17.000000pt" height="17.000000pt" viewBox="0 0 17.000000 17.000000"
 preserveAspectRatio="xMidYMid meet">

<g transform="translate(0.000000,17.000000) scale(0.100000,-0.100000)"
fill="#000000" stroke="none">
<path d="M80 147 c0 -7 -9 -18 -20 -25 -13 -8 -20 -23 -20 -42 0 -19 7 -34 20
-42 11 -7 20 -18 20 -25 0 -7 5 -13 10 -13 6 0 10 6 10 13 0 7 9 20 20 30 11
9 20 26 20 37 0 11 -9 28 -20 37 -11 10 -20 23 -20 30 0 7 -4 13 -10 13 -5 0
-10 -6 -10 -13z m30 -53 c11 -12 10 -18 -3 -31 -8 -9 -23 -13 -31 -10 -19 8
-21 43 -3 50 20 9 24 8 37 -9z"/>
</g>
</svg>
