<?xml version="1.0" standalone="no"?>
<!DOCTYPE svg PUBLIC "-//W3C//DTD SVG 20010904//EN"
 "http://www.w3.org/TR/2001/REC-SVG-20010904/DTD/svg10.dtd">
<svg version="1.0" xmlns="http://www.w3.org/2000/svg"
 width="1280.000000pt" height="720.000000pt" viewBox="0 0 1280.000000 720.000000"
 preserveAspectRatio="xMidYMid meet">
<metadata>
Created by potrace 1.16, written by Peter Selinger 2001-2019
</metadata>
<g transform="translate(0.000000,720.000000) scale(0.100000,-0.100000)"
fill="#000000" stroke="none">
<path d="M1624 7108 c-15 -74 -19 -138 -19 -313 0 -194 3 -232 23 -323 71
-316 217 -586 437 -806 149 -149 346 -281 528 -352 l67 -27 0 -1687 0 -1687
-67 -27 c-182 -71 -379 -203 -528 -352 -220 -220 -366 -490 -437 -806 -20 -91
-23 -129 -23 -323 0 -175 4 -239 19 -312 l18 -93 605 0 605 0 -41 47 c-23 25
-55 70 -71 99 -35 61 -70 187 -70 254 0 68 35 193 72 259 41 72 127 158 199
199 66 37 191 72 259 72 64 0 190 -34 253 -67 74 -40 176 -145 215 -223 33
-67 62 -177 62 -240 0 -112 -57 -258 -137 -349 l-45 -51 605 0 605 0 18 93
c15 73 19 137 19 312 0 194 -3 232 -23 323 -71 316 -217 586 -437 806 -149
149 -346 281 -527 352 l-68 27 0 1687 0 1687 48 18 c223 84 472 262 630 450
181 215 292 441 354 717 20 91 23 129 23 323 0 175 -4 239 -19 313 l-18 92
-605 0 -605 0 45 -51 c80 -91 137 -237 137 -349 0 -63 -29 -174 -62 -240 -40
-78 -132 -174 -209 -218 -66 -37 -191 -72 -259 -72 -68 0 -193 35 -259 72 -72
41 -158 127 -199 199 -37 66 -72 191 -72 259 0 67 35 193 70 254 16 29 48 74
71 99 l41 47 -605 0 -605 0 -18 -92z"/>
<path d="M8635 7000 l200 -200 -401 -402 c-416 -418 -439 -445 -480 -568 -28
-83 -26 -244 4 -332 93 -269 367 -419 640 -350 146 37 161 49 599 486 l403
400 402 -400 c439 -437 454 -449 600 -486 393 -99 749 257 650 650 -37 146
-49 161 -486 600 l-401 402 200 200 200 200 -1165 0 -1165 0 200 -200z"/>
<path d="M9468 4654 c-93 -22 -176 -70 -248 -143 -77 -78 -113 -142 -140 -247
-19 -75 -20 -114 -20 -1214 l0 -1137 -67 -27 c-182 -71 -379 -203 -528 -352
-220 -220 -366 -490 -437 -806 -20 -91 -23 -129 -23 -323 0 -175 4 -239 19
-312 l18 -93 605 0 605 0 -45 51 c-81 93 -136 236 -137 355 0 62 36 189 72
253 41 72 127 158 199 199 66 37 191 72 259 72 64 0 191 -34 253 -67 68 -37
165 -134 205 -204 37 -66 72 -191 72 -259 0 -67 -35 -193 -70 -254 -16 -29
-48 -74 -71 -99 l-41 -47 605 0 605 0 18 93 c15 73 19 137 19 312 0 194 -3
232 -23 323 -71 316 -217 586 -437 806 -149 149 -346 281 -527 352 l-68 27 0
1131 c0 1244 1 1207 -62 1336 -41 84 -142 187 -226 229 -116 59 -260 76 -384
45z"/>
</g>
</svg>
